   <svg id="dais-logo" xmlns="http://www.w3.org/2000/svg" width="388.48" height="86.706"
            viewBox="0 0 388.48 86.706">
            <g id="Group_1" data-name="Group 1" transform="translate(-320.077 -386.897)">
                <g id="Group_6" data-name="Group 6" transform="translate(320.077 386.897)">
                    <g id="Group_4" data-name="Group 4" transform="translate(0 0.126)">
                        <g id="Group_1-2" data-name="Group 1" transform="translate(0.005)">
                            <path id="Path_1" data-name="Path 1"
                                d="M125.591,744.149H27.936v29.683c18.9.126,33.333,1.549,51.664-.291,17.185-1.733,35.624-17.792,45.724-27.615C125.491,745.768,127.408,744.333,125.591,744.149ZM61.506,767.177c-7.937,0-14.361-3.061-14.361-6.829s6.425-6.822,14.361-6.822,14.357,3.054,14.357,6.822-6.425,6.839-14.357,6.839Z"
                                transform="translate(-27.936 -744.149)" fill="#23272e" />
                        </g>
                        <g id="Group_2" data-name="Group 2" transform="translate(62.963 5.169)">
                            <path id="Path_2" data-name="Path 2"
                                d="M77.755,745.017C63.68,756.252,40.28,771.234,38.91,788.829c0,0-.428,5.5-.4,11.128.023,5.583.179,8.937.316,11.837.06,1.163.672,14.494.672,14.494H77.755C77.927,744.589,77.581,826.723,77.755,745.017ZM58.449,813.366c-4.489,0-8.123-6.746-8.123-15.04s3.631-15.033,8.123-15.033,8.127,6.722,8.127,15.033-3.631,15.038-8.12,15.038Z"
                                transform="translate(-38.508 -745.017)" fill="#23272e" />
                        </g>
                        <g id="Group_3" data-name="Group 3" transform="translate(0 34.471)">
                            <path id="Path_3" data-name="Path 3"
                                d="M84.221,767.7a20.541,20.541,0,0,0-5.15-9.23,37.47,37.47,0,0,0-5.829-4.066,43.575,43.575,0,0,0-6.013-2.484c-.309-.142-3.256-.851-3.256-.851A59.912,59.912,0,0,0,51.4,749.944c-9.383,0-14.361.035-23.461.035,0,17.469.012,34.456.012,51.923H86.277C86.277,790.46,87.908,777.2,84.221,767.7ZM58.106,789.25a13.819,13.819,0,1,1,13.838-13.819A13.819,13.819,0,0,1,58.106,789.25Z"
                                transform="translate(-27.937 -749.937)" fill="#23272e" />
                        </g>
                    </g>
                    <path id="Path_4" data-name="Path 4"
                        d="M92.514,744.128H114v53.255H67.058a16.476,16.476,0,0,1-16.315-11.074c-1.482-4.757-1.447-20.339.4-24.668,4.268-10.021,24.038-8.8,41.376-8.8ZM75.45,762.83c-1.905,0-3.619.672-3.619,3.024v18.862c0,3.954,5.966,2.726,21.256,2.726,0-7.823-.172-16.78-.172-24.61Z"
                        transform="translate(79.841 -744.128)" fill="#23272e" fill-rule="evenodd" />
                    <path id="Path_5" data-name="Path 5" d="M95.987,745.584v44.563h-19.5V745.584Z"
                        transform="translate(212.61 -736.915)" fill="#23272e" fill-rule="evenodd" />
                    <path id="Path_6" data-name="Path 6"
                        d="M64.808,745.547h45.472c10.933,1.114,15.071,6.111,16.2,13.433v31.351H80.726c-8.544,0-18.869-5.627-17.506-15.517,1.954-14.147,25.3-11.533,42.567-11.54.8-4.948-1.607-6.359-4.375-6.359h-36.6m19.5,19.495c0,4.885,14.422,3.584,21.477,3.584v-6.371c-6.7,0-21.477-1.579-21.477,2.792Z"
                        transform="translate(146.269 -737.108)" fill="#23272e" fill-rule="evenodd" />
                    <path id="Path_7" data-name="Path 7"
                        d="M144.851,745.539v10.342H116.4c-9.283,0-12.926.126-12.926,3.847,0,3.478,3,3.585,12.968,3.585,12.17,0,22.163,0,27.215,6.366,7.841,9.867-3.389,20.7-14.719,20.7H84.38V780.039h22.281c15.243,0,18.3,1.049,18.3-3.584,0-3.889-4.371-2.791-21.881-2.791-10.058,0-22.84-5.8-20.293-17.773,1.023-4.817,9.537-10.342,14.719-10.342Z"
                        transform="translate(242.207 -737.137)" fill="#23272e" fill-rule="evenodd" />
                    <path id="Path_8" data-name="Path 8"
                        d="M82.756,754.058v4.978H71.217c-1.861,0-1.7,3.2-1.589,5.583H81.561v5.569H70.026v12.731H60.875V759.433C62.794,752.008,73.85,754.058,82.756,754.058Z"
                        transform="translate(135.259 -696.218)" fill="#23272e" fill-rule="evenodd" />
                    <path id="Path_9" data-name="Path 9"
                        d="M65.564,753.817h9.151v5.117H87.043v5.215H74.715v10.516c0,2.817,1.97,2.214,13.128,2.214V782.6H76.7c-7.288,0-11.63-.142-11.14-7.02Z"
                        transform="translate(158.304 -696.126)" fill="#23272e" fill-rule="evenodd" />
                    <path id="Path_10" data-name="Path 10"
                        d="M57.261,754.683H75.993v5.443H63.335c-3.287,0-4.447,0-4.447,1.721,0,1.882.775,2.275,4.119,2.275H70.42a6.725,6.725,0,0,1,7.162,7.276c0,5.443-3.566,7.157-8.7,7.157H50.123v-5.566H63.66c2.3,0,4.768.107,4.768-1.591s-2.47-1.912-3.489-1.912c-3.184,0-5.841-.077-8.839-.077a7.376,7.376,0,0,1-6.364-7.562,7.171,7.171,0,0,1,7.525-7.164Z"
                        transform="translate(80.056 -691.865)" fill="#23272e" fill-rule="evenodd" />
                    <path id="Path_11" data-name="Path 11"
                        d="M63.473,754.72h9.7c8.23,0,8.634,5.543,8.634,8.839v6.02c0,3.538-.047,8.651-8.141,8.651H64.029c-7.909,0-8.569-5.117-8.569-8.3v-6.371C55.46,760.591,55.413,754.72,63.473,754.72Zm7.878,5.943H65.446c-1.263,0-1.233.607-1.233,1.237v8.746c0,.947-.03,1.547,1.684,1.547h6.171c1.012,0,.947-.6.947-1.547V761.9c-.016-.749-.016-1.237-1.663-1.237Z"
                        transform="translate(108.43 -691.653)" fill="#23272e" fill-rule="evenodd" />
                    <path id="Path_12" data-name="Path 12"
                        d="M79.325,754.678v17.339c0,1.477,1.382.965,6.771.965v-18.3h9.537v18.3c2.221,0,6.364.6,6.364-.97V754.678h9.551v18.7c0,5.771-10.76,5.168-20.686,5.168-9.974,0-20.7.6-20.7-5.168v-18.7Z"
                        transform="translate(181.295 -691.86)" fill="#23272e" fill-rule="evenodd" />
                    <path id="Path_13" data-name="Path 13"
                        d="M105.4,778.656c-21.721,0-27.448.6-27.448-7.325,0-6.925,6.513-7.39,18.7-7.39,0-1.763.4-3.584-2.81-3.584h-14.7v-5.583c12.486,0,26.259-1.412,26.259,5.406Zm-18.1-7.05c0,2.061,2.221,1.482,9.348,1.482V769.51c-7.8,0-9.348.035-9.348,2.1Z"
                        transform="translate(219.876 -691.968)" fill="#23272e" fill-rule="evenodd" />
                    <path id="Path_14" data-name="Path 14"
                        d="M90.067,754.678h15.4v5.583H93.526c-1.793,0-1.191.577-1.191,18.3H83.582V762.945C83.582,757.388,83.535,754.678,90.067,754.678Z"
                        transform="translate(247.755 -691.86)" fill="#23272e" fill-rule="evenodd" />
                    <path id="Path_15" data-name="Path 15"
                        d="M88.291,763.275c.16-5.89,3.417-8.606,8.23-8.606h9.788c4.913,0,9.437,2.347,9.437,5.329v4.047c0,3.31-5.894,4.554-9.176,4.554H97.032c0,2.417-.4,4.294,2.81,4.294h15.052v5.583H96.134c-3.805,0-7.841-3.161-7.841-5.9C88.291,768.646,88.221,765.906,88.291,763.275Zm16.338.465c2.21,0,2.114-.893,2.114-1.745,0-.637,0-1.847-2.2-1.847-1.012-.012-4.389,0-5.931.012-.756,0-1.565.012-1.565,1.065v2.512Z"
                        transform="translate(270.929 -691.891)" fill="#23272e" fill-rule="evenodd" />
                    <path id="Path_16" data-name="Path 16" d="M95.987,744.164v5.966h-19.5v-5.966Z"
                        transform="translate(212.61 -743.95)" fill="#23272e" fill-rule="evenodd" />
                    <line id="Line_1" data-name="Line 1" y2="84.834" transform="translate(116.666 1.065)" fill="none"
                        stroke="#050605" stroke-width="0.5" />
                    <path id="Path_17" data-name="Path 17" d="M56.157,756.873" transform="translate(111.883 -680.985)"
                        fill="none" stroke="#fff" stroke-width="1" />
                    <path id="Path_18" data-name="Path 18" d="M54.773,756.873" transform="translate(105.028 -680.985)"
                        fill="none" stroke="#fff" stroke-width="1" />
                </g>
            </g>
        </svg>