<svg xmlns="http://www.w3.org/2000/svg" width="477" height="280.001" viewBox="0 0 477 280.001">
  <path id="Exclusion_1" data-name="Exclusion 1" d="M477.5,280.5H.5V.5h477v280ZM281.971,155.618v14.773c0,3.783,5.521,4.1,11.672,4.1.651,0,1.333,0,1.935-.007s1.292-.007,1.951-.007c.613,0,1.239,0,1.846.007h.069c.6,0,1.228.007,1.836.007h.121a34.879,34.879,0,0,0,8.138-.634c2.379-.611,3.535-1.744,3.535-3.462V155.618H305.9V169.31c0,.757-1.163.854-2.177.854-.471,0-.963-.024-1.439-.047-.424-.021-.825-.04-1.166-.04V155.618h-7.168v14.458h-.06c-.953,0-1.745.023-2.381.042-.451.013-.836.025-1.156.025a2.69,2.69,0,0,1-1.17-.157.659.659,0,0,1-.322-.674v-13.7Zm-32.5-4.136a15.762,15.762,0,0,0-5.822.808,5.018,5.018,0,0,0-3.248,3.643v18.549h6.877V164.426h8.669v-4.4h-8.968v-.01c-.07-1.519-.157-3.409.521-4.118a.9.9,0,0,1,.673-.282h8.672v-3.931c-1.189,0-2.448-.052-3.666-.1S250.673,151.482,249.467,151.482Zm76.461,4.031c-1.3,0-2.675.024-4.006.047h-.006c-1.381.024-2.807.049-4.2.049v4.41h11.047a2.314,2.314,0,0,1,1.7.5,2.562,2.562,0,0,1,.414,1.909c0,.131-.006.278-.006.42h-.094c-4.225,0-7.921.065-10.368.866a4.654,4.654,0,0,0-3.592,4.969c0,5.53,3.55,5.794,14.774,5.794q1.224,0,2.575,0h.11c1.012,0,2.057,0,3.168,0l0-14.594c0-1.759-1.106-2.941-3.381-3.611A31.54,31.54,0,0,0,325.928,155.513Zm20.949.1c-2.351,0-3.627.477-4.265,1.6-.609,1.069-.609,2.651-.609,4.841V174.48h6.578c0-3.488-.029-6.178-.049-8.143v-.007c-.047-4.412-.061-5.743.329-6.138a.816.816,0,0,1,.615-.164h8.973v-4.41Zm-156.046,14.46v4.4h14.1a7.644,7.644,0,0,0,4.716-1.215,5.176,5.176,0,0,0,1.822-4.439,5.463,5.463,0,0,0-1.435-4.173,4.962,4.962,0,0,0-3.6-1.586c-.115,0-.232,0-.347.012h-5.571c-2.546,0-3.1-.319-3.1-1.8,0-1.359.842-1.359,3.343-1.359h9.513v-4.3H196.2c-.088,0-.177-.007-.266-.007a5.234,5.234,0,0,0-3.717,1.562,5.838,5.838,0,0,0-1.673,4.1,5.737,5.737,0,0,0,4.783,5.973c1.112,0,2.136.014,3.219.029s2.2.031,3.423.031c.615,0,2.623.109,2.623,1.51,0,1.164-1.359,1.258-3,1.258H190.831Zm178.312-14.491c-3.875,0-6.071,2.414-6.185,6.8-.034,1.34-.024,2.738-.012,4.356.006.886.013,1.887.014,2.99,0,2.222,3.084,4.661,5.893,4.661h14.1v-4.409H371.639a2.256,2.256,0,0,1-1.66-.494,3.246,3.246,0,0,1-.458-2.325c0-.187.006-.378.006-.573h7.168a12.529,12.529,0,0,0,4.373-.818c1.151-.465,2.523-1.325,2.523-2.779v-3.2a3.656,3.656,0,0,0-2.162-2.988,10.138,10.138,0,0,0-4.93-1.221Zm-146.955.228c-2.6,0-4.373.87-5.269,2.587a9.464,9.464,0,0,0-.752,4.354v5.073a7.76,7.76,0,0,0,.991,4.22c1.014,1.549,2.847,2.335,5.449,2.335h7.242c6.118,0,6.118-4.112,6.118-6.833V162.8c0-2.089,0-6.981-6.489-6.981Zm-52.375-45.634c-1.564,1.312-3.268,2.678-5.071,4.124-10.356,8.3-23.245,18.637-24.122,30.482,0,.043-.321,4.364-.3,8.789.018,4.449.14,7.167.238,9.35.046.915.5,11.345.506,11.449h28.751c.059-29.634.037-32.072,0-32.1,0,0,0,0-.006.008s0,.009-.005.009C169.773,142.282,169.752,139.861,169.812,110.182Zm-58.451,23.145c-.242,0-.488,0-.73.006-3.553,0-6.3.007-8.957.014-2.6.007-5.283.014-8.674.014,0,6.935,0,13.835,0,20.507v.375c0,6.573,0,13.361,0,20.13h43.835c0-2.1.068-4.322.133-6.473.221-7.266.449-14.779-1.678-20.541a16.5,16.5,0,0,0-3.87-7.291,28.278,28.278,0,0,0-4.381-3.211,31.851,31.851,0,0,0-4.519-1.962c-.229-.111-2.425-.668-2.447-.673A43.026,43.026,0,0,0,111.361,133.327Zm149.879,18.242v17.186c-.131,1.926.18,3.222.98,4.077,1.372,1.468,4.161,1.468,7.391,1.468h8.372v-4.514h-.147c-1.37,0-2.541.013-3.574.025-.8.009-1.5.017-2.1.017a9.725,9.725,0,0,1-3.264-.311c-.559-.238-.777-.653-.777-1.48V159.73h9.265v-4.119h-9.265v-4.042Zm-46.475-38.723c-5.1,0-10.41.134-14.686,1.107-4.64,1.056-7.467,2.98-8.643,5.88-.636,1.566-1.042,5.161-1.088,9.616a41.685,41.685,0,0,0,.788,9.869,12.446,12.446,0,0,0,11.7,8.761c.187,0,.376,0,.563-.014h35.276V106H222.527l0,6.882c-1.274,0-2.585-.009-3.853-.018h-.018C217.381,112.855,216.059,112.846,214.764,112.846Zm123.67,27.042v8.168H371.92c4.966,0,10.052-2.976,12.092-7.077a8.492,8.492,0,0,0-1.03-9.275c-1.741-2.306-4.353-3.7-8.22-4.4a73.529,73.529,0,0,0-12.233-.629,39.529,39.529,0,0,1-7.681-.386c-1.485-.361-2.064-1.047-2.064-2.446,0-1.442.67-2.226,2.241-2.622a36.2,36.2,0,0,1,7.473-.417h21.381v-8.168l-35.577.007c-3.8,0-10.28,4.3-11.062,8.168a9.842,9.842,0,0,0,1.963,8.565c3.3,4.04,9.223,5.474,13.287,5.474,2.754,0,5.122-.039,7.025-.07h.009c1.407-.023,2.622-.043,3.665-.043a14.811,14.811,0,0,1,4.524.423,1.758,1.758,0,0,1,1.221,1.9c0,1.332-.308,2.005-1.1,2.4a11.26,11.26,0,0,1-4.41.511c-.859,0-1.832-.015-2.958-.032-1.523-.023-3.249-.049-5.29-.049Zm-28.174-27.04v35.2h14.654v-35.2ZM271.353,126.52c-10.234,0-19.851,1.122-20.921,9.263a9.431,9.431,0,0,0,2.3,7.649,14.926,14.926,0,0,0,10.852,4.608h34.383V123.277c-.956-6.539-4.71-9.812-12.172-10.611H251.627l0,8.979h27.506a3.28,3.28,0,0,1,2.622,1.013c.722.841.946,2.19.667,4.009-1.724,0-3.486-.035-5.352-.072l-.112,0h-.007C275.218,126.559,273.253,126.52,271.353,126.52ZM93,106.1v23.446c4.222.03,8.145.15,11.939.266,4.083.125,7.939.243,11.884.243a139.919,139.919,0,0,0,15-.738c9.643-1.022,21.2-8.361,34.362-21.812.011-.011.033-.03.062-.056.226-.2.818-.722.71-1.062-.049-.155-.242-.251-.571-.286Zm217.257.07v4.712h14.654v-4.712Zm16.171,63.965c-1.906,0-2.583-.186-2.583-1.23,0-1.6,1.113-1.655,7.025-1.655v2.826h-.084c-1.069,0-1.976.019-2.777.035C327.408,170.123,326.887,170.134,326.431,170.134Zm-97.784-.517h-4.638c-.6,0-.938-.1-1.108-.32a1.405,1.405,0,0,1-.158-.863v-6.98a.983.983,0,0,1,.178-.731,1.036,1.036,0,0,1,.749-.212h4.438c1.231,0,1.238.384,1.25.967V168.4q0,.066,0,.13c0,.419,0,.75-.177.93A.719.719,0,0,1,228.647,169.617Zm-112.969-5.236h-.005a10.072,10.072,0,0,1-7.338-3.206,11.313,11.313,0,0,1,.011-15.431,10.031,10.031,0,0,1,14.685,0,11.307,11.307,0,0,1-.007,15.436A10.078,10.078,0,0,1,115.678,164.381Zm39.625-.212c-3.366,0-6.1-5.329-6.1-11.88s2.739-11.875,6.1-11.875c1.632,0,3.166,1.234,4.319,3.476a20.635,20.635,0,0,1,0,16.8c-1.152,2.242-2.685,3.477-4.317,3.477h0Zm219.933-1.416-5.7,0v-1.985c0-.841.625-.841,1.176-.841.855-.007,2.337-.014,3.4-.014.435,0,.821,0,1.059,0,1.656,0,1.656.948,1.656,1.458v.08a1.253,1.253,0,0,1-.245.947A1.9,1.9,0,0,1,375.236,162.753Zm-162.543-22.4c-3.949,0-5.71-.332-5.71-2.3v-14.9a2.191,2.191,0,0,1,.823-1.891,3.184,3.184,0,0,1,1.9-.5l13.125,0c0,3.1.033,6.465.064,9.724s.064,6.624.064,9.715h-.082c-2.48,0-4.6.045-6.479.085C214.983,140.329,213.763,140.355,212.693,140.355ZM275.578,140c-4.327,0-9.293-.336-9.3-2.954,0-2.17,4.486-2.421,7.859-2.421,1.47,0,3.006.054,4.454.109l.431.016c1.257.048,2.443.093,3.4.093v5.032h-.048c-.841,0-1.826.026-2.868.054C278.235,139.963,276.92,140,275.578,140ZM118.232,124.3h0v-.006c-5.951,0-10.793-2.42-10.793-5.395s4.842-5.389,10.793-5.389,10.789,2.418,10.789,5.389S124.181,124.3,118.232,124.3Z" transform="translate(-0.5 -0.5)" fill="#fff"/>
</svg>
